{
  "accessors": [
    {
      "bufferView": 2,
      "componentType": 5126,
      "count": 9282,
      "max": [
        0.2906561493873596,
        0.45681828260421753,
        1.2802016735076904
      ],
      "min": [
        -0.29543444514274597,
        -0.7813489437103271,
        0.00602752948179841
      ],
      "type": "VEC3"
    },
    {
      "bufferView": 2,
      "byteOffset": 111384,
      "componentType": 5126,
      "count": 9282,
      "max": [
        1.0,
        1.0,
        1.0
      ],
      "min": [
        -1.0,
        -1.0,
        -1.0
      ],
      "type": "VEC3"
    },
    {
      "bufferView": 3,
      "componentType": 5126,
      "count": 9282,
      "max": [
        1.0,
        1.0,
        1.0,
        1.0
      ],
      "min": [
        -1.0,
        -1.0,
        -1.0,
        -1.0
      ],
      "type": "VEC4"
    },
    {
      "bufferView": 1,
      "componentType": 5126,
      "count": 9282,
      "max": [
        0.9960217475891113,
        0.995411217212677
      ],
      "min": [
        0.003978297114372253,
        0.003978252410888672
      ],
      "type": "VEC2"
    },
    {
      "bufferView": 1,
      "byteOffset": 74256,
      "componentType": 5126,
      "count": 9282,
      "max": [
        0.9960217475891113,
        0.995411217212677
      ],
      "min": [
        0.003978297114372253,
        0.003978252410888672
      ],
      "type": "VEC2"
    },
    {
      "bufferView": 0,
      "componentType": 5125,
      "count": 36552,
      "type": "SCALAR"
    }
  ],
  "asset": {
    "extras": {
      "author": "Janis Zeps (https://sketchfab.com/zeps9001)",
      "license": "CC-BY-4.0 (http://creativecommons.org/licenses/by/4.0/)",
      "source": "https://sketchfab.com/3d-models/antique-movie-camera-e3bfab76da80435fa5af1d8e0b1f2b17",
      "title": "Antique Movie Camera"
    },
    "generator": "Sketchfab-11.88.0",
    "version": "2.0"
  },
  "bufferViews": [
    {
      "buffer": 0,
      "byteLength": 146208,
      "name": "floatBufferViews",
      "target": 34963
    },
    {
      "buffer": 0,
      "byteLength": 148512,
      "byteOffset": 146208,
      "byteStride": 8,
      "name": "floatBufferViews",
      "target": 34962
    },
    {
      "buffer": 0,
      "byteLength": 222768,
      "byteOffset": 294720,
      "byteStride": 12,
      "name": "floatBufferViews",
      "target": 34962
    },
    {
      "buffer": 0,
      "byteLength": 148512,
      "byteOffset": 517488,
      "byteStride": 16,
      "name": "floatBufferViews",
      "target": 34962
    }
  ],
  "buffers": [
    {
      "byteLength": 666000,
      "uri": "scene.bin"
    }
  ],
  "images": [
    {
      "uri": "textures/Camera_baseColor.png"
    },
    {
      "uri": "textures/Camera_metallicRoughness.png"
    },
    {
      "uri": "textures/Camera_normal.png"
    }
  ],
  "materials": [
    {
      "doubleSided": true,
      "name": "Camera",
      "normalTexture": {
        "index": 2
      },
      "occlusionTexture": {
        "index": 1
      },
      "pbrMetallicRoughness": {
        "baseColorTexture": {
          "index": 0
        },
        "metallicFactor": 0.8833351573852823,
        "metallicRoughnessTexture": {
          "index": 1
        }
      }
    }
  ],
  "meshes": [
    {
      "name": "camera_Camera_0",
      "primitives": [
        {
          "attributes": {
            "NORMAL": 1,
            "POSITION": 0,
            "TANGENT": 2,
            "TEXCOORD_0": 3,
            "TEXCOORD_1": 4
          },
          "indices": 5,
          "material": 0,
          "mode": 4
        }
      ]
    }
  ],
  "nodes": [
    {
      "children": [
        1
      ],
      "matrix": [
        1.0,
        0.0,
        0.0,
        0.0,
        0.0,
        2.220446049250313e-16,
        -1.0,
        0.0,
        0.0,
        1.0,
        2.220446049250313e-16,
        0.0,
        0.0,
        0.0,
        0.0,
        1.0
      ],
      "name": "Sketchfab_model"
    },
    {
      "children": [
        2
      ],
      "matrix": [
        0.009999999776482582,
        0.0,
        0.0,
        0.0,
        0.0,
        0.0,
        0.009999999776482582,
        0.0,
        0.0,
        -0.009999999776482582,
        0.0,
        0.0,
        0.0,
        0.0,
        0.0,
        1.0
      ],
      "name": "882f9b2fb0644d16a1a5faf5bfbfec08.fbx"
    },
    {
      "children": [
        3
      ],
      "name": "RootNode"
    },
    {
      "children": [
        4
      ],
      "matrix": [
        100.0,
        0.0,
        0.0,
        0.0,
        -0.0,
        -1.629206793918314e-05,
        -99.99999999999868,
        0.0,
        0.0,
        99.99999999999868,
        -1.629206793918314e-05,
        0.0,
        -4.099926948547363,
        0.051501765847206116,
        -17.143095016479492,
        1.0
      ],
      "name": "camera"
    },
    {
      "mesh": 0,
      "name": "camera_Camera_0"
    }
  ],
  "samplers": [
    {
      "magFilter": 9729,
      "minFilter": 9987,
      "wrapS": 10497,
      "wrapT": 10497
    }
  ],
  "scene": 0,
  "scenes": [
    {
      "name": "Sketchfab_Scene",
      "nodes": [
        0
      ]
    }
  ],
  "textures": [
    {
      "sampler": 0,
      "source": 0
    },
    {
      "sampler": 0,
      "source": 1
    },
    {
      "sampler": 0,
      "source": 2
    }
  ]
}
